<mxfile host="Electron" modified="2023-11-28T22:11:45.738Z" agent="Mozilla/5.0 (Windows NT 10.0; Win64; x64) AppleWebKit/537.36 (KHTML, like Gecko) draw.io/22.1.2 Chrome/114.0.5735.289 Electron/25.9.4 Safari/537.36" etag="z22baJrwYE_Y6Vb1GhSL" version="22.1.2" type="device">
  <diagram id="C5RBs43oDa-KdzZeNtuy" name="Page-1">
    <mxGraphModel dx="1198" dy="836" grid="1" gridSize="10" guides="1" tooltips="1" connect="1" arrows="1" fold="1" page="1" pageScale="1" pageWidth="827" pageHeight="1169" background="none" math="0" shadow="1">
      <root>
        <mxCell id="WIyWlLk6GJQsqaUBKTNV-0" />
        <mxCell id="WIyWlLk6GJQsqaUBKTNV-1" parent="WIyWlLk6GJQsqaUBKTNV-0" />
        <mxCell id="_SGG_M2jSRVZH-HZWc7w-0" value="&lt;i&gt;Field&lt;/i&gt;" style="swimlane;fontStyle=1;align=center;verticalAlign=top;childLayout=stackLayout;horizontal=1;startSize=26;horizontalStack=0;resizeParent=1;resizeParentMax=0;resizeLast=0;collapsible=1;marginBottom=0;whiteSpace=wrap;html=1;" vertex="1" parent="WIyWlLk6GJQsqaUBKTNV-1">
          <mxGeometry x="80" y="40" width="480" height="150" as="geometry" />
        </mxCell>
        <mxCell id="_SGG_M2jSRVZH-HZWc7w-1" value="value" style="text;strokeColor=none;fillColor=none;align=left;verticalAlign=top;spacingLeft=4;spacingRight=4;overflow=hidden;rotatable=0;points=[[0,0.5],[1,0.5]];portConstraint=eastwest;whiteSpace=wrap;html=1;" vertex="1" parent="_SGG_M2jSRVZH-HZWc7w-0">
          <mxGeometry y="26" width="480" height="26" as="geometry" />
        </mxCell>
        <mxCell id="_SGG_M2jSRVZH-HZWc7w-2" value="" style="line;strokeWidth=1;fillColor=none;align=left;verticalAlign=middle;spacingTop=-1;spacingLeft=3;spacingRight=3;rotatable=0;labelPosition=right;points=[];portConstraint=eastwest;strokeColor=inherit;" vertex="1" parent="_SGG_M2jSRVZH-HZWc7w-0">
          <mxGeometry y="52" width="480" height="8" as="geometry" />
        </mxCell>
        <mxCell id="_SGG_M2jSRVZH-HZWc7w-3" value="__init__()&amp;nbsp;&lt;br&gt;@property value()&amp;nbsp;&lt;br&gt;@value.setter()&lt;br&gt;__str__()&amp;nbsp;&lt;br&gt;__repr__()" style="text;strokeColor=none;fillColor=none;align=left;verticalAlign=top;spacingLeft=4;spacingRight=4;overflow=hidden;rotatable=0;points=[[0,0.5],[1,0.5]];portConstraint=eastwest;whiteSpace=wrap;html=1;" vertex="1" parent="_SGG_M2jSRVZH-HZWc7w-0">
          <mxGeometry y="60" width="480" height="90" as="geometry" />
        </mxCell>
        <mxCell id="_SGG_M2jSRVZH-HZWc7w-4" value="Name" style="swimlane;fontStyle=1;align=center;verticalAlign=top;childLayout=stackLayout;horizontal=1;startSize=26;horizontalStack=0;resizeParent=1;resizeParentMax=0;resizeLast=0;collapsible=1;marginBottom=0;whiteSpace=wrap;html=1;" vertex="1" parent="WIyWlLk6GJQsqaUBKTNV-1">
          <mxGeometry x="40" y="280" width="130" height="86" as="geometry" />
        </mxCell>
        <mxCell id="_SGG_M2jSRVZH-HZWc7w-5" value="value" style="text;strokeColor=none;fillColor=none;align=left;verticalAlign=top;spacingLeft=4;spacingRight=4;overflow=hidden;rotatable=0;points=[[0,0.5],[1,0.5]];portConstraint=eastwest;whiteSpace=wrap;html=1;" vertex="1" parent="_SGG_M2jSRVZH-HZWc7w-4">
          <mxGeometry y="26" width="130" height="26" as="geometry" />
        </mxCell>
        <mxCell id="_SGG_M2jSRVZH-HZWc7w-6" value="" style="line;strokeWidth=1;fillColor=none;align=left;verticalAlign=middle;spacingTop=-1;spacingLeft=3;spacingRight=3;rotatable=0;labelPosition=right;points=[];portConstraint=eastwest;strokeColor=inherit;" vertex="1" parent="_SGG_M2jSRVZH-HZWc7w-4">
          <mxGeometry y="52" width="130" height="8" as="geometry" />
        </mxCell>
        <mxCell id="_SGG_M2jSRVZH-HZWc7w-7" value="__init__()" style="text;strokeColor=none;fillColor=none;align=left;verticalAlign=top;spacingLeft=4;spacingRight=4;overflow=hidden;rotatable=0;points=[[0,0.5],[1,0.5]];portConstraint=eastwest;whiteSpace=wrap;html=1;" vertex="1" parent="_SGG_M2jSRVZH-HZWc7w-4">
          <mxGeometry y="60" width="130" height="26" as="geometry" />
        </mxCell>
        <mxCell id="_SGG_M2jSRVZH-HZWc7w-8" value="Address" style="swimlane;fontStyle=1;align=center;verticalAlign=top;childLayout=stackLayout;horizontal=1;startSize=26;horizontalStack=0;resizeParent=1;resizeParentMax=0;resizeLast=0;collapsible=1;marginBottom=0;whiteSpace=wrap;html=1;" vertex="1" parent="WIyWlLk6GJQsqaUBKTNV-1">
          <mxGeometry x="490" y="280" width="130" height="110" as="geometry" />
        </mxCell>
        <mxCell id="_SGG_M2jSRVZH-HZWc7w-9" value="value" style="text;strokeColor=none;fillColor=none;align=left;verticalAlign=top;spacingLeft=4;spacingRight=4;overflow=hidden;rotatable=0;points=[[0,0.5],[1,0.5]];portConstraint=eastwest;whiteSpace=wrap;html=1;" vertex="1" parent="_SGG_M2jSRVZH-HZWc7w-8">
          <mxGeometry y="26" width="130" height="26" as="geometry" />
        </mxCell>
        <mxCell id="_SGG_M2jSRVZH-HZWc7w-10" value="" style="line;strokeWidth=1;fillColor=none;align=left;verticalAlign=middle;spacingTop=-1;spacingLeft=3;spacingRight=3;rotatable=0;labelPosition=right;points=[];portConstraint=eastwest;strokeColor=inherit;" vertex="1" parent="_SGG_M2jSRVZH-HZWc7w-8">
          <mxGeometry y="52" width="130" height="8" as="geometry" />
        </mxCell>
        <mxCell id="_SGG_M2jSRVZH-HZWc7w-11" value="__init__()&lt;br&gt;__str__()" style="text;strokeColor=none;fillColor=none;align=left;verticalAlign=top;spacingLeft=4;spacingRight=4;overflow=hidden;rotatable=0;points=[[0,0.5],[1,0.5]];portConstraint=eastwest;whiteSpace=wrap;html=1;" vertex="1" parent="_SGG_M2jSRVZH-HZWc7w-8">
          <mxGeometry y="60" width="130" height="50" as="geometry" />
        </mxCell>
        <mxCell id="_SGG_M2jSRVZH-HZWc7w-12" value="Email" style="swimlane;fontStyle=1;align=center;verticalAlign=top;childLayout=stackLayout;horizontal=1;startSize=26;horizontalStack=0;resizeParent=1;resizeParentMax=0;resizeLast=0;collapsible=1;marginBottom=0;whiteSpace=wrap;html=1;" vertex="1" parent="WIyWlLk6GJQsqaUBKTNV-1">
          <mxGeometry x="380" y="440" width="140" height="150" as="geometry" />
        </mxCell>
        <mxCell id="_SGG_M2jSRVZH-HZWc7w-13" value="value" style="text;strokeColor=none;fillColor=none;align=left;verticalAlign=top;spacingLeft=4;spacingRight=4;overflow=hidden;rotatable=0;points=[[0,0.5],[1,0.5]];portConstraint=eastwest;whiteSpace=wrap;html=1;" vertex="1" parent="_SGG_M2jSRVZH-HZWc7w-12">
          <mxGeometry y="26" width="140" height="26" as="geometry" />
        </mxCell>
        <mxCell id="_SGG_M2jSRVZH-HZWc7w-14" value="" style="line;strokeWidth=1;fillColor=none;align=left;verticalAlign=middle;spacingTop=-1;spacingLeft=3;spacingRight=3;rotatable=0;labelPosition=right;points=[];portConstraint=eastwest;strokeColor=inherit;" vertex="1" parent="_SGG_M2jSRVZH-HZWc7w-12">
          <mxGeometry y="52" width="140" height="8" as="geometry" />
        </mxCell>
        <mxCell id="_SGG_M2jSRVZH-HZWc7w-15" value="__eq__()&lt;br&gt;find_all_emails()&amp;nbsp;&lt;br&gt;@property value()&lt;br&gt;@value.setter()&amp;nbsp;&lt;br&gt;__str__()" style="text;strokeColor=none;fillColor=none;align=left;verticalAlign=top;spacingLeft=4;spacingRight=4;overflow=hidden;rotatable=0;points=[[0,0.5],[1,0.5]];portConstraint=eastwest;whiteSpace=wrap;html=1;" vertex="1" parent="_SGG_M2jSRVZH-HZWc7w-12">
          <mxGeometry y="60" width="140" height="90" as="geometry" />
        </mxCell>
        <mxCell id="_SGG_M2jSRVZH-HZWc7w-16" value="Phone" style="swimlane;fontStyle=1;align=center;verticalAlign=top;childLayout=stackLayout;horizontal=1;startSize=26;horizontalStack=0;resizeParent=1;resizeParentMax=0;resizeLast=0;collapsible=1;marginBottom=0;whiteSpace=wrap;html=1;" vertex="1" parent="WIyWlLk6GJQsqaUBKTNV-1">
          <mxGeometry x="140" y="440" width="140" height="120" as="geometry" />
        </mxCell>
        <mxCell id="_SGG_M2jSRVZH-HZWc7w-17" value="value" style="text;strokeColor=none;fillColor=none;align=left;verticalAlign=top;spacingLeft=4;spacingRight=4;overflow=hidden;rotatable=0;points=[[0,0.5],[1,0.5]];portConstraint=eastwest;whiteSpace=wrap;html=1;" vertex="1" parent="_SGG_M2jSRVZH-HZWc7w-16">
          <mxGeometry y="26" width="140" height="26" as="geometry" />
        </mxCell>
        <mxCell id="_SGG_M2jSRVZH-HZWc7w-18" value="" style="line;strokeWidth=1;fillColor=none;align=left;verticalAlign=middle;spacingTop=-1;spacingLeft=3;spacingRight=3;rotatable=0;labelPosition=right;points=[];portConstraint=eastwest;strokeColor=inherit;" vertex="1" parent="_SGG_M2jSRVZH-HZWc7w-16">
          <mxGeometry y="52" width="140" height="8" as="geometry" />
        </mxCell>
        <mxCell id="_SGG_M2jSRVZH-HZWc7w-19" value="__eq__()&amp;nbsp;&lt;br&gt;@properry value()&lt;br&gt;@value.setter()&amp;nbsp;" style="text;strokeColor=none;fillColor=none;align=left;verticalAlign=top;spacingLeft=4;spacingRight=4;overflow=hidden;rotatable=0;points=[[0,0.5],[1,0.5]];portConstraint=eastwest;whiteSpace=wrap;html=1;" vertex="1" parent="_SGG_M2jSRVZH-HZWc7w-16">
          <mxGeometry y="60" width="140" height="60" as="geometry" />
        </mxCell>
        <mxCell id="_SGG_M2jSRVZH-HZWc7w-20" value="Birthday" style="swimlane;fontStyle=1;align=center;verticalAlign=top;childLayout=stackLayout;horizontal=1;startSize=26;horizontalStack=0;resizeParent=1;resizeParentMax=0;resizeLast=0;collapsible=1;marginBottom=0;whiteSpace=wrap;html=1;" vertex="1" parent="WIyWlLk6GJQsqaUBKTNV-1">
          <mxGeometry x="260" y="280" width="140" height="120" as="geometry" />
        </mxCell>
        <mxCell id="_SGG_M2jSRVZH-HZWc7w-21" value="value" style="text;strokeColor=none;fillColor=none;align=left;verticalAlign=top;spacingLeft=4;spacingRight=4;overflow=hidden;rotatable=0;points=[[0,0.5],[1,0.5]];portConstraint=eastwest;whiteSpace=wrap;html=1;" vertex="1" parent="_SGG_M2jSRVZH-HZWc7w-20">
          <mxGeometry y="26" width="140" height="26" as="geometry" />
        </mxCell>
        <mxCell id="_SGG_M2jSRVZH-HZWc7w-22" value="" style="line;strokeWidth=1;fillColor=none;align=left;verticalAlign=middle;spacingTop=-1;spacingLeft=3;spacingRight=3;rotatable=0;labelPosition=right;points=[];portConstraint=eastwest;strokeColor=inherit;" vertex="1" parent="_SGG_M2jSRVZH-HZWc7w-20">
          <mxGeometry y="52" width="140" height="8" as="geometry" />
        </mxCell>
        <mxCell id="_SGG_M2jSRVZH-HZWc7w-23" value="@property value()&lt;br&gt;@value.setter&lt;br&gt;__str__()&amp;nbsp;" style="text;strokeColor=none;fillColor=none;align=left;verticalAlign=top;spacingLeft=4;spacingRight=4;overflow=hidden;rotatable=0;points=[[0,0.5],[1,0.5]];portConstraint=eastwest;whiteSpace=wrap;html=1;" vertex="1" parent="_SGG_M2jSRVZH-HZWc7w-20">
          <mxGeometry y="60" width="140" height="60" as="geometry" />
        </mxCell>
        <mxCell id="_SGG_M2jSRVZH-HZWc7w-24" value="Record" style="swimlane;fontStyle=1;align=center;verticalAlign=top;childLayout=stackLayout;horizontal=1;startSize=26;horizontalStack=0;resizeParent=1;resizeParentMax=0;resizeLast=0;collapsible=1;marginBottom=0;whiteSpace=wrap;html=1;" vertex="1" parent="WIyWlLk6GJQsqaUBKTNV-1">
          <mxGeometry x="40" y="640" width="160" height="390" as="geometry" />
        </mxCell>
        <mxCell id="_SGG_M2jSRVZH-HZWc7w-25" value="name: Name&lt;br&gt;phones = [phone: Phone]&lt;br&gt;birthday: Birthday&lt;br&gt;emails = [email: Email]&lt;br&gt;address: Address" style="text;strokeColor=none;fillColor=none;align=left;verticalAlign=top;spacingLeft=4;spacingRight=4;overflow=hidden;rotatable=0;points=[[0,0.5],[1,0.5]];portConstraint=eastwest;whiteSpace=wrap;html=1;" vertex="1" parent="_SGG_M2jSRVZH-HZWc7w-24">
          <mxGeometry y="26" width="160" height="84" as="geometry" />
        </mxCell>
        <mxCell id="_SGG_M2jSRVZH-HZWc7w-26" value="" style="line;strokeWidth=1;fillColor=none;align=left;verticalAlign=middle;spacingTop=-1;spacingLeft=3;spacingRight=3;rotatable=0;labelPosition=right;points=[];portConstraint=eastwest;strokeColor=inherit;" vertex="1" parent="_SGG_M2jSRVZH-HZWc7w-24">
          <mxGeometry y="110" width="160" height="8" as="geometry" />
        </mxCell>
        <mxCell id="_SGG_M2jSRVZH-HZWc7w-27" value="__init__()&amp;nbsp;&lt;br&gt;add_address()&amp;nbsp;&lt;br&gt;add_birthday()&lt;br&gt;add_phone()&lt;br&gt;add_email()&lt;br&gt;datetime_to_str()&lt;br&gt;days_to_birthday()&lt;br&gt;edit_phone()&lt;br&gt;edit_mail()&lt;br&gt;find_phone()&lt;br&gt;find_email()&lt;br&gt;remove_phone()&lt;br&gt;remove_email()&amp;nbsp;&lt;br&gt;remove_address()&amp;nbsp;&lt;br&gt;seek_phone()&amp;nbsp;&lt;br&gt;seek_email()&lt;br&gt;__str__()&amp;nbsp;&lt;br&gt;__repr__()" style="text;strokeColor=none;fillColor=none;align=left;verticalAlign=top;spacingLeft=4;spacingRight=4;overflow=hidden;rotatable=0;points=[[0,0.5],[1,0.5]];portConstraint=eastwest;whiteSpace=wrap;html=1;" vertex="1" parent="_SGG_M2jSRVZH-HZWc7w-24">
          <mxGeometry y="118" width="160" height="272" as="geometry" />
        </mxCell>
        <mxCell id="_SGG_M2jSRVZH-HZWc7w-28" value="AddressBook" style="swimlane;fontStyle=1;align=center;verticalAlign=top;childLayout=stackLayout;horizontal=1;startSize=26;horizontalStack=0;resizeParent=1;resizeParentMax=0;resizeLast=0;collapsible=1;marginBottom=0;whiteSpace=wrap;html=1;" vertex="1" parent="WIyWlLk6GJQsqaUBKTNV-1">
          <mxGeometry x="600" y="640" width="180" height="258" as="geometry" />
        </mxCell>
        <mxCell id="_SGG_M2jSRVZH-HZWc7w-29" value="{&lt;br&gt;name:Name: &lt;br&gt;record: Record&lt;br&gt;}" style="text;strokeColor=none;fillColor=none;align=left;verticalAlign=top;spacingLeft=4;spacingRight=4;overflow=hidden;rotatable=0;points=[[0,0.5],[1,0.5]];portConstraint=eastwest;whiteSpace=wrap;html=1;" vertex="1" parent="_SGG_M2jSRVZH-HZWc7w-28">
          <mxGeometry y="26" width="180" height="74" as="geometry" />
        </mxCell>
        <mxCell id="_SGG_M2jSRVZH-HZWc7w-30" value="" style="line;strokeWidth=1;fillColor=none;align=left;verticalAlign=middle;spacingTop=-1;spacingLeft=3;spacingRight=3;rotatable=0;labelPosition=right;points=[];portConstraint=eastwest;strokeColor=inherit;" vertex="1" parent="_SGG_M2jSRVZH-HZWc7w-28">
          <mxGeometry y="100" width="180" height="8" as="geometry" />
        </mxCell>
        <mxCell id="_SGG_M2jSRVZH-HZWc7w-31" value="add_record()&lt;br&gt;change_name()&amp;nbsp;&lt;br&gt;delete_record()&amp;nbsp;&lt;br&gt;find_name()&amp;nbsp;&lt;br&gt;iterator()&lt;br&gt;read_contacts_from_file()&amp;nbsp;&lt;br&gt;write_contacts_to_file()&lt;br&gt;__getitem__()&amp;nbsp;&lt;br&gt;__str__()" style="text;strokeColor=none;fillColor=none;align=left;verticalAlign=top;spacingLeft=4;spacingRight=4;overflow=hidden;rotatable=0;points=[[0,0.5],[1,0.5]];portConstraint=eastwest;whiteSpace=wrap;html=1;" vertex="1" parent="_SGG_M2jSRVZH-HZWc7w-28">
          <mxGeometry y="108" width="180" height="150" as="geometry" />
        </mxCell>
        <mxCell id="_SGG_M2jSRVZH-HZWc7w-36" value="&lt;i&gt;UserDict&lt;/i&gt;" style="swimlane;fontStyle=1;align=center;verticalAlign=top;childLayout=stackLayout;horizontal=1;startSize=26;horizontalStack=0;resizeParent=1;resizeParentMax=0;resizeLast=0;collapsible=1;marginBottom=0;whiteSpace=wrap;html=1;" vertex="1" parent="WIyWlLk6GJQsqaUBKTNV-1">
          <mxGeometry x="600" y="80" width="160" height="34" as="geometry" />
        </mxCell>
        <mxCell id="_SGG_M2jSRVZH-HZWc7w-38" value="" style="line;strokeWidth=1;fillColor=none;align=left;verticalAlign=middle;spacingTop=-1;spacingLeft=3;spacingRight=3;rotatable=0;labelPosition=right;points=[];portConstraint=eastwest;strokeColor=inherit;" vertex="1" parent="_SGG_M2jSRVZH-HZWc7w-36">
          <mxGeometry y="26" width="160" height="8" as="geometry" />
        </mxCell>
        <mxCell id="_SGG_M2jSRVZH-HZWc7w-50" value="" style="endArrow=block;endSize=16;endFill=0;html=1;rounded=0;exitX=0.615;exitY=0;exitDx=0;exitDy=0;exitPerimeter=0;" edge="1" parent="WIyWlLk6GJQsqaUBKTNV-1" source="_SGG_M2jSRVZH-HZWc7w-4">
          <mxGeometry width="160" relative="1" as="geometry">
            <mxPoint x="110" y="230" as="sourcePoint" />
            <mxPoint x="120" y="190" as="targetPoint" />
          </mxGeometry>
        </mxCell>
        <mxCell id="_SGG_M2jSRVZH-HZWc7w-57" value="" style="endArrow=block;endSize=16;endFill=0;html=1;rounded=0;entryX=0.5;entryY=1;entryDx=0;entryDy=0;" edge="1" parent="WIyWlLk6GJQsqaUBKTNV-1" target="_SGG_M2jSRVZH-HZWc7w-36">
          <mxGeometry width="160" relative="1" as="geometry">
            <mxPoint x="680" y="640" as="sourcePoint" />
            <mxPoint x="480" y="210" as="targetPoint" />
          </mxGeometry>
        </mxCell>
        <mxCell id="_SGG_M2jSRVZH-HZWc7w-58" value="" style="endArrow=block;endSize=16;endFill=0;html=1;rounded=0;exitX=0.415;exitY=-0.009;exitDx=0;exitDy=0;exitPerimeter=0;entryX=0.967;entryY=1;entryDx=0;entryDy=0;entryPerimeter=0;" edge="1" parent="WIyWlLk6GJQsqaUBKTNV-1">
          <mxGeometry width="160" relative="1" as="geometry">
            <mxPoint x="538.95" y="279.01" as="sourcePoint" />
            <mxPoint x="539.1599999999999" y="190" as="targetPoint" />
          </mxGeometry>
        </mxCell>
        <mxCell id="_SGG_M2jSRVZH-HZWc7w-59" value="" style="endArrow=block;endSize=16;endFill=0;html=1;rounded=0;exitX=0.5;exitY=0;exitDx=0;exitDy=0;entryX=0.767;entryY=1.011;entryDx=0;entryDy=0;entryPerimeter=0;" edge="1" parent="WIyWlLk6GJQsqaUBKTNV-1">
          <mxGeometry width="160" relative="1" as="geometry">
            <mxPoint x="450" y="439" as="sourcePoint" />
            <mxPoint x="448.1600000000001" y="189.99" as="targetPoint" />
          </mxGeometry>
        </mxCell>
        <mxCell id="_SGG_M2jSRVZH-HZWc7w-60" value="" style="endArrow=block;endSize=16;endFill=0;html=1;rounded=0;exitX=0.436;exitY=-0.008;exitDx=0;exitDy=0;exitPerimeter=0;" edge="1" parent="WIyWlLk6GJQsqaUBKTNV-1" source="_SGG_M2jSRVZH-HZWc7w-20" target="_SGG_M2jSRVZH-HZWc7w-3">
          <mxGeometry width="160" relative="1" as="geometry">
            <mxPoint x="322" y="270" as="sourcePoint" />
            <mxPoint x="300" y="260" as="targetPoint" />
          </mxGeometry>
        </mxCell>
        <mxCell id="_SGG_M2jSRVZH-HZWc7w-61" value="" style="endArrow=block;endSize=16;endFill=0;html=1;rounded=0;exitX=0.5;exitY=0;exitDx=0;exitDy=0;entryX=0.271;entryY=1;entryDx=0;entryDy=0;entryPerimeter=0;" edge="1" parent="WIyWlLk6GJQsqaUBKTNV-1" source="_SGG_M2jSRVZH-HZWc7w-16" target="_SGG_M2jSRVZH-HZWc7w-3">
          <mxGeometry width="160" relative="1" as="geometry">
            <mxPoint x="150" y="270" as="sourcePoint" />
            <mxPoint x="310" y="270" as="targetPoint" />
          </mxGeometry>
        </mxCell>
        <mxCell id="_SGG_M2jSRVZH-HZWc7w-63" value="" style="endArrow=open;html=1;endSize=12;startArrow=diamondThin;startSize=14;startFill=1;edgeStyle=orthogonalEdgeStyle;align=left;verticalAlign=bottom;rounded=0;exitX=0;exitY=0.5;exitDx=0;exitDy=0;entryX=0.988;entryY=0.028;entryDx=0;entryDy=0;entryPerimeter=0;" edge="1" parent="WIyWlLk6GJQsqaUBKTNV-1" source="_SGG_M2jSRVZH-HZWc7w-29" target="_SGG_M2jSRVZH-HZWc7w-24">
          <mxGeometry x="-1" y="3" relative="1" as="geometry">
            <mxPoint x="590" y="680" as="sourcePoint" />
            <mxPoint x="200" y="680" as="targetPoint" />
          </mxGeometry>
        </mxCell>
        <mxCell id="_SGG_M2jSRVZH-HZWc7w-72" value="" style="endArrow=open;html=1;endSize=12;startArrow=diamondThin;startSize=14;startFill=0;edgeStyle=orthogonalEdgeStyle;align=left;verticalAlign=bottom;rounded=0;exitX=0.438;exitY=-0.003;exitDx=0;exitDy=0;exitPerimeter=0;entryX=0.436;entryY=0.983;entryDx=0;entryDy=0;entryPerimeter=0;" edge="1" parent="WIyWlLk6GJQsqaUBKTNV-1" source="_SGG_M2jSRVZH-HZWc7w-24" target="_SGG_M2jSRVZH-HZWc7w-19">
          <mxGeometry x="-1" y="3" relative="1" as="geometry">
            <mxPoint x="380" y="430" as="sourcePoint" />
            <mxPoint x="200" y="570" as="targetPoint" />
            <Array as="points">
              <mxPoint x="110" y="610" />
              <mxPoint x="201" y="610" />
            </Array>
          </mxGeometry>
        </mxCell>
        <mxCell id="_SGG_M2jSRVZH-HZWc7w-75" value="" style="endArrow=open;html=1;endSize=12;startArrow=diamondThin;startSize=14;startFill=0;edgeStyle=orthogonalEdgeStyle;align=left;verticalAlign=bottom;rounded=0;exitX=0.438;exitY=-0.003;exitDx=0;exitDy=0;exitPerimeter=0;" edge="1" parent="WIyWlLk6GJQsqaUBKTNV-1">
          <mxGeometry x="-1" y="3" relative="1" as="geometry">
            <mxPoint x="110" y="639" as="sourcePoint" />
            <mxPoint x="560" y="390" as="targetPoint" />
            <Array as="points">
              <mxPoint x="110" y="610" />
              <mxPoint x="560" y="610" />
            </Array>
          </mxGeometry>
        </mxCell>
        <mxCell id="_SGG_M2jSRVZH-HZWc7w-78" value="" style="endArrow=open;html=1;endSize=12;startArrow=diamondThin;startSize=14;startFill=0;edgeStyle=orthogonalEdgeStyle;align=left;verticalAlign=bottom;rounded=0;exitX=0.438;exitY=-0.003;exitDx=0;exitDy=0;exitPerimeter=0;entryX=0.429;entryY=1;entryDx=0;entryDy=0;entryPerimeter=0;" edge="1" parent="WIyWlLk6GJQsqaUBKTNV-1" target="_SGG_M2jSRVZH-HZWc7w-23">
          <mxGeometry x="-1" y="3" relative="1" as="geometry">
            <mxPoint x="110" y="639" as="sourcePoint" />
            <mxPoint x="201" y="559" as="targetPoint" />
            <Array as="points">
              <mxPoint x="110" y="610" />
              <mxPoint x="320" y="610" />
            </Array>
          </mxGeometry>
        </mxCell>
        <mxCell id="_SGG_M2jSRVZH-HZWc7w-79" value="" style="endArrow=open;html=1;endSize=12;startArrow=diamondThin;startSize=14;startFill=0;edgeStyle=orthogonalEdgeStyle;align=left;verticalAlign=bottom;rounded=0;exitX=0.438;exitY=-0.003;exitDx=0;exitDy=0;exitPerimeter=0;" edge="1" parent="WIyWlLk6GJQsqaUBKTNV-1">
          <mxGeometry x="-1" y="3" relative="1" as="geometry">
            <mxPoint x="110" y="639" as="sourcePoint" />
            <mxPoint x="440" y="590" as="targetPoint" />
            <Array as="points">
              <mxPoint x="110" y="610" />
              <mxPoint x="440" y="610" />
            </Array>
          </mxGeometry>
        </mxCell>
        <mxCell id="_SGG_M2jSRVZH-HZWc7w-82" value="" style="endArrow=open;html=1;endSize=12;startArrow=diamondThin;startSize=14;startFill=1;edgeStyle=orthogonalEdgeStyle;align=left;verticalAlign=bottom;rounded=0;exitX=0.25;exitY=0;exitDx=0;exitDy=0;entryX=0.3;entryY=1;entryDx=0;entryDy=0;entryPerimeter=0;" edge="1" parent="WIyWlLk6GJQsqaUBKTNV-1" source="_SGG_M2jSRVZH-HZWc7w-24" target="_SGG_M2jSRVZH-HZWc7w-7">
          <mxGeometry x="-1" y="3" relative="1" as="geometry">
            <mxPoint x="380" y="530" as="sourcePoint" />
            <mxPoint x="80" y="370" as="targetPoint" />
          </mxGeometry>
        </mxCell>
      </root>
    </mxGraphModel>
  </diagram>
</mxfile>
